<?xml version="1.0" encoding="UTF-8"?>
<svg width="162px" height="32px" viewBox="0 0 162 32" version="1.1" xmlns="http://www.w3.org/2000/svg" xmlns:xlink="http://www.w3.org/1999/xlink">

    <defs>
        <polygon id="path-1" points="0 0 32.000029 0 32.000029 32 0 32"></polygon>
        <path d="M5.74519165,0.398447042 C6.74153331,-0.299200759 8.11469056,-0.0569538901 8.81233836,0.939271869 L8.81233836,0.939271869 L8.83602298,0.973776232 C9.50432029,1.96709112 9.256403,3.31678973 8.27151354,4.00641859 L8.27151354,4.00641859 L3.23347411,7.53406617 L0.868843315,6.43155315 L0.727320144,6.36548582 C0.294057563,6.12996159 0,5.67073571 0,5.14277662 C0,4.6859848 0.221151687,4.28193093 0.561224564,4.02832512 L0.561224564,4.02832512 L0.639925819,3.97326901" id="path-3"></path>
        <linearGradient x1="19.699966%" y1="74.6310239%" x2="91.0758725%" y2="26.7063335%" id="linearGradient-5">
            <stop stop-color="#FFFFFF" stop-opacity="0.700931149" offset="0%"></stop>
            <stop stop-color="#FFFFFF" stop-opacity="0" offset="100%"></stop>
        </linearGradient>
        <path d="M1.80724226,12.0127556 C0.81090059,12.7104034 0.568769629,14.0835607 1.26641743,15.0797864 L1.26641743,15.0797864 C1.96406523,16.0761281 3.33733839,16.3182591 4.33356415,15.6207272 L4.33356415,15.6207272 L9.48774298,12.0117125 L9.48693162,12.0105534 C9.84334747,11.7586862 10.0770172,11.3442006 10.0770172,10.8745431 L10.0770172,10.8745431 C10.0770172,10.3477431 9.78400278,9.88956035 9.352247,9.65345658 L9.352247,9.65345658 L9.2041171,9.58437566 L6.84586122,8.48476032 L1.80724226,12.0127556 Z" id="path-6"></path>
        <linearGradient x1="23.3621581%" y1="88.9078547%" x2="100%" y2="31.8356901%" id="linearGradient-8">
            <stop stop-color="#FFFFFF" offset="0%"></stop>
            <stop stop-color="#FFFFFF" stop-opacity="0" offset="100%"></stop>
        </linearGradient>
    </defs>
    <g id="榜单KOL" stroke="none" stroke-width="1" fill="none" fill-rule="evenodd">
        <g transform="translate(-18.000000, -12.000000)" id="导航">
            <g id="编组" transform="translate(18.000000, 12.000000)">
                <g>
                    <g>
                        <mask id="mask-2" fill="white">
                            <use xlink:href="#path-1"></use>
                        </mask>
                        <g id="Clip-2"></g>
                        <path d="M31.192182,7.84907672 C30.5028796,4.22638491 27.7024362,1.46627741 24.1265711,0.776279511 C18.7411566,-0.258775291 13.2265052,-0.258775291 7.84109069,0.776279511 C4.22210792,1.46627741 1.4647822,4.26961845 0.775479749,7.84907672 C-0.258531885,13.2399389 -0.258531885,18.7601539 0.775479749,24.1509001 C1.4647822,27.7735919 4.26522555,30.5336994 7.84109069,31.2236973 C10.5554147,31.7412247 13.2696228,32.0000464 15.9838309,32.0000464 C18.698039,32.0000464 21.412363,31.7412247 24.1265711,31.2236973 C27.7455539,30.5336994 30.5028796,27.7304743 31.192182,24.1509001 C32.2693113,18.7601539 32.2693113,13.2399389 31.192182,7.84907672" id="Fill-1" fill="#007FFF" mask="url(#mask-2)"></path>
                    </g>
                    <path d="M21.3968777,14.8726596 L21.3968777,14.8726596 C22.4443347,14.8726596 23.2933578,14.0235205 23.2933578,12.9761795 L23.2933578,7.49653219 C23.2933578,6.44919118 22.4443347,5.60005216 21.3968777,5.60005216 L21.3968777,5.60005216 C20.3495367,5.60005216 19.5003977,6.44919118 19.5003977,7.49653219 L19.5003977,12.9761795 C19.5003977,14.0235205 20.3494208,14.8726596 21.3968777,14.8726596" id="Fill-3" fill="#FFFFFF"></path>
                    <path d="M14.0207619,7.49654378 L14.0207619,7.49897784 C14.0207619,8.54643475 14.869901,9.39545787 15.917242,9.39545787 L21.3968893,9.39545787 C22.4442303,9.39545787 23.2933694,8.54643475 23.2933694,7.49897784 L23.2933694,7.49654378 C23.2933694,6.44908687 22.4442303,5.60006375 21.3968893,5.60006375 L15.917242,5.60006375 C14.869901,5.60006375 14.0207619,6.44908687 14.0207619,7.49654378" id="Fill-5" fill="#FFFFFF"></path>
                    <g transform="translate(12.063662, 7.743366)">
                        <mask id="mask-4" fill="white">
                            <use xlink:href="#path-3"></use>
                        </mask>
                        <g id="Clip-8"></g>
                        <path d="M8.81233836,0.939271869 L8.81233836,0.939271869 C8.11469056,-0.0569538901 6.74153331,-0.299200759 5.74519165,0.398447042 L0.639925819,3.97326901 L0.561224564,4.02832512 C0.221151687,4.28193093 0,4.6859848 0,5.14277662 C0,5.67073571 0.294057563,6.12996159 0.727320144,6.36548582 L0.868843315,6.43155315 L3.23347411,7.53406617 L8.27151354,4.00641859 C9.2678552,3.30877079 9.50998616,1.93561354 8.81233836,0.939271869" id="Fill-7" fill="url(#linearGradient-5)" mask="url(#mask-4)"></path>
                    </g>
                </g>
                <g transform="translate(8.706620, 11.771714)">
                    <mask id="mask-7" fill="white">
                        <use xlink:href="#path-6"></use>
                    </mask>
                    <g id="Clip-10"></g>
                    <path d="M1.80724226,12.0127556 C0.81090059,12.7104034 0.568769629,14.0835607 1.26641743,15.0797864 L1.26641743,15.0797864 C1.96406523,16.0761281 3.33733839,16.3182591 4.33356415,15.6207272 L4.33356415,15.6207272 L9.48774298,12.0117125 L9.48693162,12.0105534 C9.84334747,11.7586862 10.0770172,11.3442006 10.0770172,10.8745431 L10.0770172,10.8745431 C10.0770172,10.3477431 9.78400278,9.88956035 9.352247,9.65345658 L9.352247,9.65345658 L9.2041171,9.58437566 L6.84586122,8.48476032 L1.80724226,12.0127556 Z" id="Fill-9" fill="url(#linearGradient-8)" mask="url(#mask-7)"></path>
                    <path d="M13.4345704,8.00979419 C13.4334113,7.98012185 13.431209,7.9504495 13.428775,7.92077716 C13.4250659,7.87615274 13.4205456,7.83152831 13.4140547,7.78736752 C13.4110411,7.7656928 13.4072162,7.74401808 13.4035071,7.72234336 C13.3944663,7.67145993 13.3842665,7.6206924 13.3718644,7.57062032 C13.3680394,7.55508871 13.3636349,7.539673 13.3594622,7.52425729 C13.344742,7.47012844 13.328399,7.41646322 13.309622,7.36360936 C13.3051016,7.35097543 13.3001176,7.33845741 13.2953654,7.32593939 C13.2751974,7.27239009 13.2532909,7.21953622 13.2290662,7.16760962 C13.2228072,7.15428025 13.2159686,7.14118269 13.2094778,7.12796923 C13.1849054,7.07801305 13.1588262,7.02886823 13.1305448,6.98088249 C13.121504,6.96546678 13.11142,6.9505147 13.1019156,6.9352149 C13.0734023,6.8894314 13.0438459,6.84411153 13.0118554,6.80029846 C13.002235,6.7872009 12.9919193,6.77503061 12.982183,6.76216486 C12.9471789,6.71638136 12.9112476,6.6711774 12.8725345,6.62817569 C12.8682459,6.62330757 12.8634937,6.61890308 12.8592051,6.61403496 C12.6692325,6.40667628 12.4368378,6.23200354 12.1660777,6.10578017 L12.1410416,6.0940735 L6.59045884,3.50574105 L4.22594395,2.40311212 C4.17749457,2.38352374 4.12997246,2.36196492 4.08442078,2.3371607 C3.65115819,2.10152056 3.35698472,1.64229468 3.35698472,1.1144515 C3.35698472,0.657659681 3.57825232,0.253605813 3.91820929,0 L0.93683419,2.08749574 C0.935906929,2.08819119 0.935095576,2.08900254 0.934168315,2.08969799 C0.875403166,2.13096109 0.819535706,2.17465825 0.766218213,2.22044175 C0.763204616,2.22299172 0.759959203,2.22542578 0.756829698,2.22797575 C0.708032602,2.27028202 0.662249103,2.31490644 0.617972402,2.36068994 C0.610206594,2.36868756 0.601977155,2.37610565 0.594327253,2.38410327 C0.558627715,2.42212096 0.525941774,2.46210908 0.493255833,2.50221311 C0.478651476,2.5202947 0.463235766,2.53733311 0.44909504,2.55587833 C0.425681706,2.58670975 0.404702432,2.61881615 0.383027712,2.65069074 C0.362512068,2.6807108 0.341416886,2.71038315 0.322292133,2.7417941 C0.307224146,2.76636651 0.294126588,2.79186618 0.28010177,2.81701813 C0.257847512,2.85700625 0.235593254,2.89711028 0.215541241,2.93895292 C0.204298204,2.96248216 0.194561966,2.98659094 0.184130283,3.0104679 C0.165237345,3.05381734 0.147039853,3.09728269 0.131160513,3.14109576 C0.121308368,3.16810223 0.112963021,3.19545642 0.104269952,3.22281061 C0.0911723936,3.2638419 0.0786543736,3.3049891 0.0679908751,3.34636811 C0.0604568815,3.37592454 0.0541978715,3.4058287 0.0478229539,3.43573286 C0.0392457921,3.47630052 0.0312481682,3.51686818 0.0251050658,3.55755174 C0.0205846697,3.58652864 0.0172233495,3.61562145 0.0139779369,3.64471425 C0.00910981799,3.68829551 0.00493714465,3.73199267 0.00273490039,3.77557392 C0.00145991687,3.80003043 0.000996286499,3.82448693 0.000416748535,3.84894343 C-0.000394604613,3.8988996 -0.000162789428,3.94873987 0.00238717761,3.99846422 C0.00319853076,4.01538673 0.00447351428,4.03242515 0.00563259021,4.04934766 C0.00992117113,4.10683782 0.0158324584,4.16398027 0.0245255278,4.22077499 C0.0259164189,4.22969987 0.0274232176,4.23874066 0.0289300163,4.24778146 C0.0394776073,4.31129882 0.0523433501,4.37446846 0.0683385978,4.43671083 C0.0690340434,4.43949261 0.0698453965,4.4422744 0.0706567497,4.44505618 C0.0880428886,4.51158714 0.108326717,4.57742265 0.131855959,4.64198318 C0.131855959,4.64209909 0.131855959,4.64221499 0.131971866,4.6423309 C0.155964738,4.70816641 0.182971207,4.77284285 0.213107181,4.8362443 C0.213570811,4.83705566 0.214034442,4.83786701 0.214382165,4.83879427 C0.244054508,4.90092074 0.276740449,4.96177223 0.312208173,5.02100101 C0.313946787,5.0238987 0.315801308,5.02679639 0.31765583,5.02969408 C0.35277583,5.08787969 0.390445798,5.14467441 0.431129363,5.19973051 C0.431708901,5.20054187 0.432404346,5.20135322 0.433099792,5.20216457 C0.644051611,5.48683362 0.926866137,5.72456009 1.27053215,5.8848603 L1.317127,5.90653501 L6.84580326,8.4846676 L9.20417505,9.58439884 C9.25494258,9.60479857 9.30466694,9.62740055 9.35230496,9.65347976 C9.78406074,9.88958353 10.0769592,10.3477662 10.0769592,10.8744503 C10.0769592,11.3442238 9.84340543,11.7587094 9.48687367,12.0105766 L9.48780093,12.0116197 L12.4953711,9.90569468 L12.4988484,9.90326063 C12.6227536,9.81656175 12.7348362,9.71931528 12.8350963,9.61372346 C12.8357917,9.61291211 12.8364872,9.61233257 12.8371826,9.61152121 C12.8812275,9.56504227 12.9217952,9.51647699 12.9610879,9.46686854 C12.9680423,9.45805956 12.9756922,9.44983012 12.9825308,9.44090524 C13.0138258,9.40022167 13.0419914,9.35768359 13.0701569,9.31526141 C13.0831385,9.29555712 13.0969316,9.27666418 13.1093337,9.25638035 C13.1311243,9.22114444 13.150365,9.18451764 13.1700692,9.14823857 C13.1856009,9.11926167 13.2018279,9.0907484 13.2163164,9.06084424 C13.2330071,9.02618787 13.2477273,8.99060424 13.2626794,8.95525243 C13.2758929,8.92372556 13.2894541,8.89219869 13.3011607,8.86044001 C13.3151855,8.82219051 13.3273558,8.78336147 13.3392943,8.74453242 C13.3482192,8.71543962 13.35726,8.68634681 13.3649099,8.6571381 C13.3756893,8.6159909 13.3846142,8.57449598 13.3929595,8.53276925 C13.398639,8.5044878 13.4043185,8.47620634 13.4088389,8.4480408 C13.4154456,8.40712542 13.4203137,8.36586232 13.4246023,8.32471512 C13.4277318,8.29365189 13.4307454,8.26270456 13.432484,8.23164132 C13.4348022,8.19489862 13.4356135,8.1579241 13.4359613,8.12106548 C13.436309,8.08385914 13.4361214,8.04676871 13.4345704,8.00979419" id="Fill-11" fill="#FFFFFF"></path>
                </g>
                <g id="Social-Grow" transform="translate(38.360338, 9.149296)" fill="#333333" fill-rule="nonzero">
                    <path d="M5.7738381,5.40638388 C5.58785248,5.34614557 5.41767947,5.29117795 5.27386075,5.23846967 C5.1767265,5.20307968 5.06528558,5.1646778 4.94405612,5.12251089 C3.48704297,4.62027448 2.65650815,4.17074634 2.72201715,3.35602386 C2.83872876,1.90578763 4.88984161,1.88922217 4.97643393,1.88922217 C6.32351212,1.88922217 7.18717813,2.36209268 7.61562268,3.33569366 L9.54475296,2.63391806 C8.79704544,0.935199097 7.17512997,0 4.97718622,0 C2.18213086,0 0.775567474,1.66784683 0.650572998,3.21822922 C0.459316406,5.59688763 3.08645755,6.50196771 4.20764227,6.88899847 C4.31381223,6.92589441 4.41169958,6.9590256 4.49678622,6.99065057 C4.66394733,7.05239484 4.86047461,7.11639816 5.07733237,7.18642502 C6.61039618,7.68263763 7.88217654,8.19466287 7.91907248,9.43632422 C7.9318732,9.87380475 7.76847684,10.247282 7.43340152,10.5454613 C6.91987033,11.0025192 6.0554512,11.251002 5.11272235,11.2095882 C3.90042719,11.1561268 2.44793216,10.5650387 2.00744,9.06360013 L0,9.55077704 C0.600876617,11.597372 2.56840878,12.989629 5.0125762,13.0965518 C5.11498114,13.1010697 5.21663324,13.1033287 5.31828506,13.1033287 C6.72861346,13.1033287 8.01620618,12.6703663 8.88664911,11.8955517 C9.64113327,11.2246479 10.0243993,10.3564641 9.99503311,9.385875 C9.91747623,6.7481922 7.2218139,5.8754902 5.77383673,5.4063847 L5.7738381,5.40638388 Z" id="S"></path>
                    <path d="M16.0704772,3.5369014 C13.2731628,3.5369014 10.9976624,5.64448782 10.9976624,8.23548615 C10.9976624,10.8257316 13.2731628,12.9333178 16.0704772,12.9333178 C18.8677917,12.9333178 21.143292,10.8257314 21.143292,8.23548615 C21.143292,5.64448782 18.8677917,3.5369014 16.0704772,3.5369014 Z M16.0704772,11.0440951 C14.4191959,11.0440951 13.0758827,9.78360947 13.0758827,8.23473303 C13.0758827,6.6858566 14.4191961,5.425371 16.0704775,5.425371 C17.7217589,5.425371 19.0658249,6.6858566 19.0658249,8.23473303 C19.0658249,9.78360947 17.7217586,11.0440951 16.0704772,11.0440951 Z" id="o"></path>
                    <path d="M27.22899,11.0440951 C27.2267309,11.0440951 27.2237193,11.0440951 27.2214602,11.0440951 C25.5701788,11.04033 24.2298776,9.77683255 24.2343954,8.22795612 C24.2366545,7.47347195 24.5529053,6.76567227 25.1259217,6.23557562 C25.6906555,5.71300873 26.4376099,5.425371 27.2304959,5.425371 C27.232755,5.425371 27.2357666,5.425371 27.2380257,5.425371 C28.195814,5.42763007 29.0730339,5.84779175 29.6437915,6.57742786 L31.3372397,5.48259741 C30.3869811,4.26729062 28.8561764,3.53916046 27.2432969,3.53614856 C27.2387791,3.53614856 27.235014,3.53614856 27.2304959,3.53614856 C25.875888,3.53614856 24.6026017,4.02407858 23.6440605,4.91184009 C22.689284,5.79658969 22.1606933,6.97198892 22.1576627,8.22268597 C22.1501516,10.8129315 24.420381,12.9257886 27.2176955,12.9325655 C27.2214605,12.9325655 27.2259783,12.9325655 27.2297433,12.9325655 C28.8290693,12.9325655 30.3530974,12.218742 31.308627,11.0215066 L29.6264734,9.91236978 C29.0519511,10.6322171 28.1784963,11.0440964 27.2289908,11.0440964 L27.22899,11.0440951 Z" id="c"></path>
                    <path d="M34.5810023,12.7345314 L34.5810023,3.73644058 L32.5035352,3.73644058 L32.5035352,12.7345314 L34.5810023,12.7345314 Z M33.5426451,2.7816644 C34.2733085,2.7816644 34.8656281,2.18934476 34.8656281,1.45868143 C34.8656281,0.728018097 34.2733085,0.135698456 33.5426451,0.135698456 C32.8119818,0.135698456 32.2196622,0.728018097 32.2196622,1.45868143 C32.2196622,2.18934476 32.8119818,2.7816644 33.5426451,2.7816644 Z" id="i"></path>
                    <path d="M44.3618891,3.73644058 L44.3618891,4.97734882 C43.9650695,4.57299948 43.4854223,4.22361749 42.9349952,3.97362854 C42.3401424,3.70330939 41.6699918,3.5572316 40.9975821,3.53916019 C40.3251724,3.52711258 39.642221,3.64231824 39.0172489,3.88327121 C38.3922768,4.12422418 37.8298021,4.48565378 37.3644616,4.92614621 C36.4367922,5.81164865 35.9194963,7.02770856 35.9277789,8.2354856 C35.9187432,9.4425098 36.4352863,10.6593228 37.3629556,11.5470843 C37.8282961,11.9875765 38.3907708,12.350512 39.0164958,12.591465 C39.6414679,12.832418 40.3251721,12.9476236 40.9983346,12.9355757 C41.6707443,12.9175043 42.3416481,12.7706734 42.9365009,12.5003543 C43.4861749,12.2503653 43.9658221,11.9009836 44.3618885,11.4973871 L44.3618885,12.7345306 L46.4393557,12.7345306 L46.4393557,3.73643976 L44.3618891,3.73644058 Z M43.2693169,10.3490953 C42.9425244,10.601343 42.566035,10.7843167 42.1782514,10.8950045 C41.7912207,11.0079514 41.393648,11.0591537 40.9975815,11.0425883 C40.2092133,11.0132221 39.4509641,10.7188077 38.8960192,10.2000056 C38.3312854,9.69099225 38.0037398,8.97265091 37.999222,8.23548532 C38.0037398,7.49756662 38.3297794,6.77847244 38.8945132,6.26870627 C39.4494582,5.74915128 40.2084602,5.4539838 40.9975815,5.4238645 C41.3944011,5.40729904 41.7919735,5.45850165 42.1797574,5.57220135 C42.5675413,5.683642 42.9440304,5.86736884 43.2708228,6.11961658 C43.9357028,6.61582919 44.3641473,7.41248026 44.3589244,8.2354856 C44.364147,9.05773782 43.9341965,9.85363577 43.2693166,10.3490956 L43.2693169,10.3490953 Z" id="a"></path>
                    <polygon id="l" points="50.4071296 12.7390493 50.4071296 0.140216309 48.3296624 0.140216309 48.3296624 12.7390493"></polygon>
                    <path d="M69.9226713,5.59688736 L67.8128261,5.59688736 C67.8135789,5.59989926 67.8143318,5.60291116 67.8143318,5.60592307 L65.2248394,5.60592307 L63.1466194,7.49514578 L67.8150849,7.49514578 C67.3489913,9.54399985 65.3987774,11.0868525 63.0705685,11.0868525 C60.3959895,11.0868525 58.2198821,9.05155225 58.2198821,6.55091125 C58.2198821,4.05027026 60.3959895,2.01497003 63.0705685,2.01497003 C64.4327062,2.01497003 65.6645787,2.54280789 66.5463161,3.3914144 L68.0153769,2.05638382 C66.7571501,0.866678192 65.0057228,0.126500427 63.0705685,0.126500427 C59.2499564,0.126500427 56.1416622,3.00890121 56.1416622,6.55091125 C56.1416622,10.0929213 59.2499564,12.9760752 63.0705685,12.9760752 C66.8911805,12.9760752 69.9994748,10.0936744 69.9994748,6.55091125 C69.9994748,6.22713071 69.9723674,5.90862085 69.9226707,5.59688763 L69.9226713,5.59688736 Z" id="G"></path>
                    <path d="M76.9051634,3.5256069 C76.5971952,3.47289835 76.290733,3.45633289 75.9970714,3.46838077 C75.4142662,3.49172314 74.7938123,3.65813141 74.2863049,3.96308771 C73.903792,4.18973428 73.5890471,4.49318463 73.3571299,4.82223615 L73.3571299,3.73644141 L71.2796627,3.73644141 L71.2796627,12.7345323 L73.3571299,12.7345323 L73.3571299,8.17524866 C73.3669187,8.06380801 73.3759544,7.9523671 73.3857432,7.84092645 C73.4158625,7.43431805 73.4986901,7.0623468 73.6507917,6.71597672 C73.8021404,6.37713638 74.0257748,6.06389749 74.2840464,5.84176877 C74.5453298,5.61436935 74.8269435,5.47732727 75.1145812,5.40504135 C75.4022189,5.32823758 75.6853388,5.32296689 75.9978248,5.34781522 C76.3088049,5.37341638 76.5602996,5.44946732 76.786193,5.56617892 C76.8509492,5.59930984 76.9126935,5.63695889 76.9721786,5.67761957 L77.4503199,3.66867334 C77.2726171,3.60768219 77.0896434,3.55798553 76.9051637,3.52560745 L76.9051634,3.5256069 Z" id="r"></path>
                    <path d="M82.7244772,3.5369014 C79.9271628,3.5369014 77.6516624,5.64448782 77.6516624,8.23548615 C77.6516624,10.8257316 79.9271628,12.9333178 82.7244772,12.9333178 C85.5217917,12.9333178 87.797292,10.8257314 87.797292,8.23548615 C87.797292,5.64448782 85.5217917,3.5369014 82.7244772,3.5369014 Z M82.7244772,11.0440951 C81.0731959,11.0440951 79.7298827,9.78360947 79.7298827,8.23473303 C79.7298827,6.6858566 81.0731961,5.425371 82.7244775,5.425371 C84.3757589,5.425371 85.7198249,6.6858566 85.7198249,8.23473303 C85.7198249,9.78360947 84.3757586,11.0440951 82.7244772,11.0440951 Z" id="o"></path>
                    <polygon id="w" points="100.285965 3.74397034 97.4065757 10.0132677 96.3682188 7.7520737 98.2092508 3.74397006 95.9578456 3.74397006 95.2425162 5.74463342 94.5279399 3.74397006 92.2757819 3.74397006 94.1168139 7.7520737 93.078457 10.0132677 90.1990679 3.74397034 87.9476627 3.74397034 92.0800077 12.7420612 94.0769061 12.7420612 95.2425165 9.75876114 96.40888 12.7420612 98.4050255 12.7420612 102.537371 3.74397034"></polygon>
                </g>
            </g>
        </g>
    </g>
</svg>
